<svg width="18" height="21" viewBox="0 0 18 21" fill="none" xmlns="http://www.w3.org/2000/svg">
<path d="M17 3.5H16.09H14V1.6C14 0.993 13.507 0.5 12.9 0.5H5.1C4.493 0.5 4 0.993 4 1.6V3.5H2.09H1C0.448 3.5 0 3.948 0 4.5C0 5.052 0.448 5.5 1 5.5H2.09V19.4C2.09 20.007 2.583 20.5 3.19 20.5H14.99C15.597 20.5 16.09 20.007 16.09 19.4V5.5H17C17.552 5.5 18 5.052 18 4.5C18 3.948 17.552 3.5 17 3.5ZM6 2.5H12V3.5H6V2.5ZM14.09 18.5H4.09V5.5H14.09V18.5Z" fill="#E84A4A"/>
<path d="M7 17.5C7.552 17.5 8 17.052 8 16.5V7.5C8 6.948 7.552 6.5 7 6.5C6.448 6.5 6 6.948 6 7.5V16.5C6 17.052 6.448 17.5 7 17.5Z" fill="#E84A4A"/>
<path d="M11 17.5C11.552 17.5 12 17.052 12 16.5V7.5C12 6.948 11.552 6.5 11 6.5C10.448 6.5 10 6.948 10 7.5V16.5C10 17.052 10.448 17.5 11 17.5Z" fill="#E84A4A"/>
</svg>
