<svg width="24" height="24" viewBox="0 0 24 24" fill="none" xmlns="http://www.w3.org/2000/svg">
<path d="M12 22C6.486 22 2 17.514 2 12C2 6.486 6.486 2 12 2C17.514 2 22 6.486 22 12C22 17.514 17.514 22 12 22ZM12 4C7.589 4 4 7.589 4 12C4 16.411 7.589 20 12 20C16.411 20 20 16.411 20 12C20 7.589 16.411 4 12 4Z" fill="#E84A4A"/>
<path d="M13.4208 12.0061L16.2488 9.1781C16.6398 8.7871 16.6398 8.1541 16.2488 7.7641C15.8578 7.3731 15.2248 7.3731 14.8348 7.7641L12.0068 10.5921L9.17183 7.7571C8.78083 7.3671 8.14783 7.3671 7.75783 7.7571C7.36783 8.1481 7.36783 8.7811 7.75783 9.1711L10.5928 12.0061L7.76483 14.8341C7.37383 15.2251 7.37383 15.8581 7.76483 16.2481C7.95983 16.4431 8.21583 16.5411 8.47183 16.5411C8.72783 16.5411 8.98383 16.4431 9.17883 16.2481L12.0068 13.4201L14.8288 16.2421C15.0238 16.4371 15.2798 16.5351 15.5358 16.5351C15.7918 16.5351 16.0478 16.4371 16.2428 16.2421C16.6338 15.8511 16.6338 15.2181 16.2428 14.8281L13.4208 12.0061Z" fill="#E84A4A"/>
</svg>
