<svg width="24" height="24" viewBox="0 0 24 24" fill="none" xmlns="http://www.w3.org/2000/svg">
<path d="M12 9C12.552 9 13 9.448 13 10L13 17C13 17.552 12.552 18 12 18C11.448 18 11 17.552 11 17L11 10C11 9.448 11.448 9 12 9Z" fill="#166CEC"/>
<path d="M12 6.00004C12.263 6.00004 12.521 6.10703 12.707 6.29303C12.893 6.47903 13 6.73704 13 7.00004C13 7.06504 12.993 7.13104 12.98 7.19504C12.968 7.25904 12.948 7.32204 12.923 7.38204C12.898 7.44304 12.867 7.50104 12.831 7.55504C12.795 7.61004 12.753 7.66104 12.707 7.70704C12.661 7.75304 12.61 7.79504 12.555 7.83104C12.501 7.86704 12.443 7.89804 12.382 7.92304C12.322 7.94804 12.259 7.96804 12.195 7.98004C11.87 8.04604 11.525 7.93904 11.293 7.70704C11.247 7.66104 11.205 7.61004 11.169 7.55504C11.133 7.50104 11.102 7.44304 11.077 7.38204C11.052 7.32204 11.032 7.25904 11.02 7.19504C11.007 7.13104 11 7.06504 11 7.00004C11 6.73704 11.107 6.47903 11.293 6.29303C11.479 6.10703 11.737 6.00004 12 6.00004Z" fill="#166CEC"/>
<path d="M12 2C17.514 2 22 6.486 22 12C22 17.514 17.514 22 12 22C6.486 22 2 17.514 2 12C2 6.486 6.486 2 12 2ZM12 20C16.411 20 20 16.411 20 12C20 7.589 16.411 4 12 4C7.589 4 4 7.589 4 12C4 16.411 7.589 20 12 20Z" fill="#166CEC"/>
</svg>
