<svg width="20" height="19" viewBox="0 0 20 19" fill="none" xmlns="http://www.w3.org/2000/svg">
<path d="M15.101 18.5671C14.924 18.5671 14.747 18.5251 14.583 18.4381L9.98604 16.0211L5.39004 18.4381C5.01204 18.6371 4.56304 18.6041 4.21704 18.3531C3.87204 18.1021 3.70204 17.6851 3.77404 17.2641L4.65204 12.1461L0.934036 8.52212C0.628036 8.22412 0.520036 7.78712 0.652036 7.38112C0.784036 6.97512 1.12804 6.68512 1.55104 6.62312L6.68904 5.87612L8.98704 1.22012C9.17604 0.837121 9.55904 0.599121 9.98504 0.599121C10.412 0.599121 10.794 0.837121 10.983 1.21912L13.281 5.87512L18.419 6.62212C18.841 6.68312 19.186 6.97412 19.318 7.38012C19.45 7.78612 19.342 8.22412 19.036 8.52212L15.318 12.1461L16.196 17.2641C16.268 17.6841 16.099 18.1011 15.754 18.3521C15.56 18.4951 15.331 18.5671 15.101 18.5671ZM9.98604 13.9071C10.164 13.9071 10.342 13.9501 10.504 14.0351L13.922 15.8321L13.269 12.0261C13.207 11.6641 13.327 11.2961 13.589 11.0401L16.354 8.34512L12.532 7.79012C12.17 7.73812 11.856 7.51012 11.694 7.18112L9.98504 3.71812L8.27704 7.18012C8.11504 7.50912 7.80104 7.73712 7.43804 7.78912L3.61704 8.34412L6.38204 11.0401C6.64404 11.2961 6.76404 11.6641 6.70204 12.0251L6.04904 15.8321L9.46704 14.0351C9.63004 13.9491 9.80804 13.9071 9.98604 13.9071ZM7.15104 5.81012C7.15004 5.81012 7.15004 5.81012 7.14904 5.81012H7.15104ZM12.82 5.81012H12.822C12.821 5.81012 12.821 5.81012 12.82 5.81012Z" fill="#6A6D71"/>
</svg>
