<svg width="24" height="24" viewBox="0 0 24 24" fill="none" xmlns="http://www.w3.org/2000/svg">
<path d="M12 22C6.486 22 2 17.514 2 12C2 6.486 6.486 2 12 2C17.514 2 22 6.486 22 12C22 17.514 17.514 22 12 22ZM12 4C7.589 4 4 7.589 4 12C4 16.411 7.589 20 12 20C16.411 20 20 16.411 20 12C20 7.589 16.411 4 12 4Z" fill="#4ECA78"/>
<path d="M10.4002 16.3579C10.1182 16.3579 9.83715 16.2509 9.62215 16.0359L6.69315 13.1069C6.30215 12.7159 6.30215 12.0829 6.69315 11.6929C7.08415 11.3029 7.71715 11.3019 8.10715 11.6929L10.4002 13.9859L15.7552 8.6309C16.1462 8.2399 16.7792 8.2399 17.1692 8.6309C17.5602 9.0219 17.5602 9.6549 17.1692 10.0449L11.1772 16.0369C10.9632 16.2509 10.6822 16.3579 10.4002 16.3579Z" fill="#4ECA78"/>
</svg>
