<svg width="16" height="16" viewBox="0 0 16 16" fill="none" xmlns="http://www.w3.org/2000/svg">
<path d="M13.9997 11.3333C13.6317 11.3333 13.333 11.632 13.333 12V14H2.66634V12C2.66634 11.632 2.36767 11.3333 1.99967 11.3333C1.63167 11.3333 1.33301 11.632 1.33301 12V14.6C1.33301 15.0047 1.66167 15.3333 2.06634 15.3333H13.933C14.3377 15.3333 14.6663 15.0047 14.6663 14.6V12C14.6663 11.632 14.3677 11.3333 13.9997 11.3333Z" fill="#989CA2"/>
<path d="M8.51851 1.54801C8.37984 1.40934 8.19584 1.33334 7.99984 1.33334C7.80384 1.33334 7.61984 1.40934 7.48117 1.54801L3.52851 5.50068C3.26784 5.76134 3.26784 6.18334 3.52851 6.44334C3.78917 6.70401 4.21117 6.70401 4.47117 6.44334L7.33317 3.58201V11.706C7.33317 12.074 7.63184 12.3727 7.99984 12.3727C8.36784 12.3727 8.66651 12.074 8.66651 11.706V3.58201L11.5285 6.44401C11.7892 6.70468 12.2112 6.70468 12.4712 6.44401C12.7312 6.18334 12.7312 5.76134 12.4712 5.50134L8.51851 1.54801Z" fill="#989CA2"/>
</svg>
