<svg width="24" height="24" viewBox="0 0 24 24" fill="none" xmlns="http://www.w3.org/2000/svg">
<path d="M12 15C11.448 15 11 14.552 11 14V7C11 6.448 11.448 6 12 6C12.552 6 13 6.448 13 7V14C13 14.552 12.552 15 12 15Z" fill="#F9B247"/>
<path d="M12 18C11.737 18 11.479 17.893 11.293 17.707C11.107 17.521 11 17.263 11 17C11 16.935 11.007 16.869 11.02 16.805C11.032 16.741 11.052 16.678 11.077 16.618C11.102 16.557 11.133 16.499 11.169 16.445C11.205 16.39 11.247 16.339 11.293 16.293C11.339 16.247 11.39 16.205 11.445 16.169C11.499 16.133 11.557 16.102 11.618 16.077C11.678 16.052 11.741 16.032 11.805 16.02C12.13 15.954 12.475 16.061 12.707 16.293C12.753 16.339 12.795 16.39 12.831 16.445C12.867 16.499 12.898 16.557 12.923 16.618C12.948 16.678 12.968 16.741 12.98 16.805C12.993 16.869 13 16.935 13 17C13 17.263 12.893 17.521 12.707 17.707C12.521 17.893 12.263 18 12 18Z" fill="#F9B247"/>
<path d="M12 22C6.486 22 2 17.514 2 12C2 6.486 6.486 2 12 2C17.514 2 22 6.486 22 12C22 17.514 17.514 22 12 22ZM12 4C7.589 4 4 7.589 4 12C4 16.411 7.589 20 12 20C16.411 20 20 16.411 20 12C20 7.589 16.411 4 12 4Z" fill="#F9B247"/>
</svg>
